# xmcd
#
# Track frame offsets:
#	150
#	20816
#	41890
#	64467
#	109310
#	128974
# Disc length: 2168 seconds
# Revision: 1
# Processed by: cddbd v1.5.2PL0 Copyright (c) Steve Scherf et al.
#
# Submitted via: libkcddb 0.31
#
DISCID=5d087606
DTITLE=STEPPENWOLF - Gothenborg 20-09-72
DYEAR=1972
DGENRE=
TTITLE0=Ride with Me
TTITLE1=Foggy Mental Breakdown
TTITLE2=Tighten up Your Wig
TTITLE3=Monster
TTITLE4=Magic Carpet Ride
TTITLE5=The Pusher
EXTD=
EXTT0=
EXTT1=
EXTT2=
EXTT3=
EXTT4=
EXTT5=
PLAYORDER=
